<?xml version="1.0" encoding="UTF-8"?>
<!DOCTYPE svg PUBLIC "-//W3C//DTD SVG 1.1//EN" "http://www.w3.org/Graphics/SVG/1.1/DTD/svg11.dtd">
<!-- Creator: CorelDRAW 2020 (64-Bit) -->
<svg xmlns="http://www.w3.org/2000/svg" xml:space="preserve" width="339.503mm" height="421.756mm" version="1.1" style="shape-rendering:geometricPrecision; text-rendering:geometricPrecision; image-rendering:optimizeQuality; fill-rule:evenodd; clip-rule:evenodd"
viewBox="0 0 4907.94 6097.01"
 xmlns:xlink="http://www.w3.org/1999/xlink"
 xmlns:xodm="http://www.corel.com/coreldraw/odm/2003">
 <defs>
  <style type="text/css">
   <![CDATA[
    .str4 {stroke:#FFF212;stroke-width:1.1;stroke-miterlimit:22.9256}
    .str2 {stroke:#574A30;stroke-width:5.66;stroke-miterlimit:22.9256}
    .str1 {stroke:#574A30;stroke-width:5.66;stroke-miterlimit:22.9256}
    .str0 {stroke:#574A30;stroke-width:5.66;stroke-miterlimit:22.9256}
    .str3 {stroke:#574A30;stroke-width:5.66;stroke-miterlimit:22.9256}
    .fil7 {fill:none}
    .fil9 {fill:#FFF212}
    .fil16 {fill:#EEDE2C}
    .fil10 {fill:#CCC13C}
    .fil6 {fill:#B89072}
    .fil27 {fill:#986F52}
    .fil26 {fill:#895F45}
    .fil8 {fill:#684B3A}
    .fil25 {fill:#4A362E}
    .fil17 {fill:#00A859}
    .fil21 {fill:black}
    .fil2 {fill:#030303}
    .fil24 {fill:#231D1B}
    .fil13 {fill:#474747}
    .fil4 {fill:#493726}
    .fil5 {fill:#56301B}
    .fil3 {fill:#6C513D}
    .fil20 {fill:#854626}
    .fil18 {fill:#908F8F}
    .fil1 {fill:#997152}
    .fil0 {fill:#B18667}
    .fil12 {fill:#B2875D}
    .fil11 {fill:#C7C7C8}
    .fil15 {fill:#D5A46D}
    .fil23 {fill:#D5D9DC}
    .fil14 {fill:#E1F2FD}
    .fil19 {fill:#FEFEFE}
    .fil22 {fill:white}
   ]]>
  </style>
 </defs>
 <g id="Capa_x0020_1">
  <metadata id="CorelCorpID_0Corel-Layer"/>
  <path class="fil0" d="M1057.68 1373.6c81.43,48.79 108.26,196.15 122.65,304.22 19.62,147.41 -20.22,256.45 -162.15,265.11 -54.76,0.54 -67.28,-10.87 -108.64,-37.71l0.18 2.18c7.12,20.92 17,50.4 29.82,89.75 17.04,52.31 60.62,99.77 106.57,131.61 27.73,16.12 61.59,29.27 92.31,40.26 2.74,0.33 5.4,0.54 7.97,0.61 62.25,1.71 66.97,31.66 66.97,31.66 9.73,7.07 19.9,13.05 30.46,18.1 -0.05,-0.24 -0.02,-0.24 0.02,0.01 99.46,47.6 234.84,12.98 388.27,25.59 169.73,13.96 212.52,274.36 224.62,351.58 12.1,77.21 22.74,161.77 165.54,287.91 12.2,10.77 24.96,20.63 38.11,29.68 45.08,12.5 91.85,22.78 150.12,35.17 20.54,-35.97 29.77,-87.81 40.44,-138.16 13.99,40.61 3.43,32.15 28.34,57.47l31.39 -181.45 12.92 94.99c22.57,-9.45 -0.02,2.68 18.64,-17.41l17.9 -21.23c-7.96,77.32 1.7,62.61 9.78,76.85 37.5,-94.52 58.45,-146.66 73.92,-261.1 27.71,64.6 -6.94,131.35 10.08,175.79 42.4,-50.99 42.45,-135.97 65.59,-201.93l-6.03 115.12c42.47,-33.89 52.05,-110.1 64.48,-173.48 7.95,31.48 1.65,51.75 22.79,77.41 39.9,-103.5 7.09,-137.81 19.45,-213.78l27.18 140.7c42.13,-43.71 33.37,-136.61 27.15,-196.35l38.39 69.91c7.63,17.57 24.22,56.94 45.35,63.56l-34.27 -136.97c0.97,28.33 51.66,132.46 91.04,159.65 4.84,-86.11 -11.14,-128.13 -14.51,-196.99 9.03,38.29 35.7,109.06 60.33,139.09 9.49,-52.69 -7,-123.61 -14.99,-172.29 34.14,47.34 59.17,132.96 80.95,172.43 10.07,18.24 3.46,7.84 15.32,21.98 8.35,-52.96 6.2,-95.76 -4.28,-146.77 7.28,24.26 1.11,10.78 18.4,34.49l31 36.81c6.01,-78.3 -12.31,-115.31 -28.31,-179.51 20.5,30.08 40.68,105.92 64.64,128.88 3.46,-75.3 -35.74,-218 -68.17,-260.69 31.45,27.96 30.08,46.16 63.85,69.61 0.45,-62.59 -61.45,-170.42 -95.61,-206.7 37.74,35.58 147.05,128.16 198.04,155.21 -3.97,-49.35 -140.42,-154.35 -158.64,-235.2 67.19,33.83 96.25,113.46 176.17,138 -5.08,-35.68 -60.29,-93.1 -89.79,-115.9l62.4 -4.17c-24.97,-17.6 -19.02,-11.19 -36.02,-37.96l-156.05 -266.18c-1.85,-3.52 -3.52,-6.57 -5.09,-9.26 -79.06,-55.48 -191.72,-145.07 -248.36,-190.68 -13.74,89.48 -101.59,151.6 -171.18,157.86l42.75 31.44c-95.33,2.36 -83.77,16.07 -181.96,-18.89l-45.96 101.35 23.63 -133.42c-33.88,12.92 -12.62,-9.2 -33.99,33.06 14.73,-64.25 38.71,-121.37 18.04,-173.6 -23.33,-9.1 -35.45,-2.49 -48.93,8.53 -10.89,8.91 -17.76,21.38 -21.21,28.79 16.16,-42.24 55.2,-68.46 89.12,-80.65l-28.88 -21.29c-0.63,-0.27 -21.94,-0.88 -21.54,0.42l67.18 -19.25c-22.27,-26.8 -41.58,-25.7 -84.61,-27.77 -33.14,-1.59 -57.88,-2.7 -88.07,-2.66 -156.53,0.2 -317.01,25.3 -464.11,54.31 -106.3,20.97 -441.81,111.25 -568.8,102.03 -45.88,10.24 -78.32,17.55 -90.1,20.21z"/>
  <path class="fil1" d="M2919.76 1513.07l156.05 266.18c17,26.77 11.05,20.36 36.02,37.96l-62.4 4.17c29.5,22.81 84.71,80.22 89.79,115.9 -79.91,-24.55 -108.98,-104.17 -176.17,-138 18.22,80.86 154.67,185.86 158.64,235.2 -50.99,-27.05 -160.3,-119.64 -198.04,-155.21 34.16,36.28 96.06,144.11 95.61,206.7 -33.76,-23.46 -32.4,-41.65 -63.85,-69.61 32.44,42.69 71.63,185.39 68.17,260.69 -23.95,-22.96 -44.13,-98.81 -64.64,-128.88 16,64.2 34.33,101.21 28.31,179.51l-31 -36.81c-17.29,-23.71 -11.12,-10.24 -18.4,-34.49 10.48,51.01 12.63,93.81 4.28,146.77 -11.86,-14.15 -5.25,-3.74 -15.32,-21.98 -21.79,-39.47 -46.82,-125.1 -80.95,-172.43 7.99,48.68 24.48,119.6 14.99,172.29 -24.64,-30.03 -51.31,-100.8 -60.33,-139.09 3.37,68.86 19.35,110.88 14.51,196.99 -39.38,-27.2 -90.07,-131.32 -91.04,-159.65l34.27 136.97c-21.13,-6.61 -37.71,-45.98 -45.35,-63.56l-38.39 -69.91c6.22,59.75 14.97,152.65 -27.15,196.35l-27.18 -140.7c-12.36,75.98 20.46,110.28 -19.45,213.78 -21.14,-25.66 -14.85,-45.93 -22.79,-77.41 -12.42,63.37 -22.01,139.59 -64.48,173.48l6.03 -115.12c-23.14,65.95 -23.19,150.94 -65.59,201.93 -17.02,-44.44 17.63,-111.19 -10.08,-175.79 -15.47,114.43 -36.43,166.58 -73.92,261.1 -8.08,-14.23 -17.74,0.47 -9.78,-76.85l-17.9 21.23c-18.65,20.08 3.93,7.96 -18.64,17.41l-12.92 -94.99 -31.39 181.45c-24.91,-25.32 -14.36,-16.86 -28.34,-57.47 -10.67,50.35 -19.91,102.19 -40.44,138.16l189.18 44.89c9.31,-2.42 16.42,-5.49 20.82,-9.05 36.38,-29.39 93.01,-83.77 143.48,-122.56 50.33,-38.69 115.55,-83.53 226.53,-118.52 17.67,-9.49 34.23,-16.04 50.15,-19.89 89.27,-42.67 158.85,-112.99 158.85,-112.99 12.5,21.57 -22.67,102.35 -22.67,102.35 31.99,-15 122.33,-135.17 122.33,-135.17l-16.23 81.5c77.43,-109 94.11,-338.48 94.11,-338.48 28.21,26.99 37.08,97.45 37.08,97.45 22.24,-88.69 -13.71,-245.46 -13.71,-245.46 23.21,13.78 81.69,80.39 81.69,80.39 6.73,-33.78 -49.72,-125.93 -49.72,-125.93 52.65,37.7 72.48,91.7 74.73,98.23l0.26 0.33c18.41,-132.19 -125.4,-358.95 -99.56,-335.5 6.86,6.23 13.14,9.97 18.06,10.97 -7.01,-18.47 -13.08,-40.04 -17.66,-68.26 4.12,2.46 7.46,4.46 10.2,6.11 -32.33,-61.48 -96.52,-161.33 -96.52,-161.33 0,0 44.85,-1.11 63.36,-9.88 -14.97,-5.5 -29.32,-11.78 -43.1,-18.6 -6.07,-0.72 -11.92,-1.64 -17.06,-2.95 -27.61,-7.02 -79.03,-55.43 -184.2,-125.23l-1.76 -1.18c-6.54,-3.03 -12.99,-5.56 -19.35,-7.5z"/>
  <path class="fil2" d="M4907.94 3605.9l-10.65 72.19c-56.15,52.58 -47.96,38.88 -111.55,77.68 -18.06,174.3 -201.82,181.63 -286.49,56.08 -38.19,-56.63 -27.75,-128.59 -74.1,-164.44 -46.38,-35.87 -130.6,-35.34 -178.55,-1.39 -14.86,10.52 -144.55,207.41 -322.98,138 -53.57,-20.84 -95.34,-85.6 -72.68,-155.11 32.03,-98.21 85.81,18.5 96.47,-155.39 -82.25,-60.23 -128.18,-193.5 -123.75,-296.13 -46.7,-15.76 -60.83,-24.35 -97.19,0.01 -76.78,159.13 54.33,447.95 108.81,550.53 58.17,109.53 184.45,341.04 184.86,498.79 187.26,23.71 263.81,-33.38 296.46,-8 25.92,43.9 36.56,61.43 3.6,116.92 -61.07,102.81 -194.27,143.31 -321.33,137.76 -29.09,75.69 -43.77,125.61 -81.86,195.57 -26.89,49.38 -93.1,132.97 -100.51,174.94 -25.26,143 -9.27,337.91 -40.55,476.77l-329.59 -4.9c6.26,51.12 69.44,237.2 90.92,308.6 11.41,37.95 12.4,70.19 23.3,104.69 93.29,295.37 -55.86,283.61 -168.46,321.76 -448.25,51.33 -1066.64,72.28 -1655.67,-3.18 -242.13,-111.3 132.09,-552.8 221.17,-589.82 -1.93,-1.46 -4.87,-2.73 -6.41,-3.43 -1.57,-0.71 -4.62,-2.45 -6.62,-3.27l-52.34 -42.2 -3.08 -185.96c-4.74,-20.04 -0.35,-8.21 -8.55,-23.54l-312.76 -87.75c-32.46,-101.66 11.47,-338.7 42.03,-451.65 41.49,-153.33 89.42,-240.66 154.59,-370.09 -11.43,-31.88 -44.04,-55.53 -35.03,-107.26 13.41,-76.98 16.37,-45.75 -14.4,-115.5 -30.62,-69.42 -45.5,-141.39 -74.89,-211.32 -92.1,29.41 -203.33,66.91 -314.38,70.94 -150.85,5.47 -201.61,-93.37 -265.54,-161.96 -20.87,-22.39 -28.84,-39.19 -47.98,-61.67l-93.65 -117.51c-63.31,-86.93 -163.92,-190.23 -217.05,-293.73 -174.59,-12.67 -165.45,5.9 -168.8,-167.1 -1.85,-95.51 -13.77,-55.72 -45.84,-121.23 -42.96,-87.77 21.89,-66.07 -48.85,-118.14 -103.17,-75.95 -49.96,-176.51 -48.17,-190.43 3.19,-24.86 -6.48,-21.23 -19.69,-51.77 -59.03,-136.48 83.17,-181.06 105.73,-203.72l-11.58 -36.55c-96.34,-3.12 -160.62,-29.91 -222.93,-86.84 -246.73,-225.37 -210.4,-491.99 -241.44,-607.69l23.89 -162.03 8.57 -13.25c58.65,-102.72 79.96,-199.54 308.12,-222.51 301.78,-30.38 548.8,518.21 430.04,864.09 -33.86,98.61 -85.2,95.12 -37.61,180.38 116.83,24.72 153.41,30.31 201.34,113.08 38.06,65.72 51.55,129.24 56.29,217.97 29.07,-13.27 39.24,-25.85 67.62,-16.65 33.34,10.81 102.48,117.15 119.87,145.86 21.4,35.33 7.81,33.59 17.98,68.77 6.68,23.12 105.55,143.59 134,158.94 79.21,-71.49 148.97,-199.83 475.1,-303.32 383.73,41 668.45,73.59 985.07,-26.3l-52.97 -409.59 498.71 -188.13c53.18,-20.06 38.52,-118.31 26.19,-144.07 97.86,-25.96 214.06,-79.13 267.76,47.87 45.66,107.99 11.54,233.06 34.7,318.61 337.97,22.3 514.72,-4.04 745.39,288.98 68.31,86.78 107.45,205.34 132.91,340.14 10.93,57.88 21.81,39.42 48.3,77.99 18.19,26.48 89.38,217.11 33.43,272.42 36.71,47.26 90.48,150.5 158.75,169.31 50.99,14.05 108.95,12.2 155.68,31.9 60.04,25.31 44.35,40.33 68.79,87z"/>
  <path class="fil0" d="M3218.39 1839.72c-2.74,-1.65 -6.08,-3.65 -10.2,-6.11 4.59,28.23 10.65,49.79 17.66,68.26 13.64,2.77 16.9,-15.54 -6.65,-60.6l-0.81 -1.55zm88.96 386.68l-0.26 -0.33 0.22 0.65 0.04 -0.32z"/>
  <path class="fil0" d="M2840.65 2724.18c-15.92,3.85 -32.48,10.4 -50.15,19.89l0.92 -0.29c16.85,-5.29 33.34,-12.01 49.22,-19.6z"/>
  <path class="fil3" d="M1147.78 1353.39c126.99,9.22 462.5,-81.06 568.8,-102.03 147.1,-29.02 307.58,-54.11 464.11,-54.31 30.19,-0.04 54.93,1.07 88.07,2.66 43.03,2.07 62.34,0.97 84.61,27.77l-67.18 19.25c-0.4,-1.3 20.91,-0.69 21.54,-0.42l28.88 21.29c-33.91,12.2 -72.96,38.41 -89.12,80.65 3.45,-7.4 10.33,-19.88 21.21,-28.79 13.47,-11.02 25.6,-17.63 48.93,-8.53 20.68,52.23 -3.3,109.35 -18.04,173.6 21.37,-42.25 0.12,-20.14 33.99,-33.06l-23.63 133.42 45.96 -101.35c98.19,34.96 86.63,21.26 181.96,18.89l-42.75 -31.44c69.6,-6.26 157.44,-68.38 171.18,-157.86 -21.87,-17.61 -35.4,-28.68 -35.4,-28.68 0,0 10.44,-17.34 14.38,-39.73 -0.42,-15.54 -0.72,-28.54 -2.16,-39.3 -3.59,-10.52 -10.17,-20.73 -21.12,-29.6 -6.3,-5.11 -13.26,-9.03 -20.6,-11.99 -21.02,-3.27 -52.42,-2.36 -99.52,1.6l-0.99 -2.11c-11.97,3.04 -19.54,5.86 -19.54,5.86 21.4,-35.74 -16.58,-68.6 -21.55,-72.67 -0.58,-0.32 -1.17,-0.62 -1.75,-0.93 -106.46,-45.71 -244.78,78.23 -244.78,78.23 0,0 -23.82,0.29 -63.18,2.03 -51.06,4.07 -125.75,9.36 -191.38,14.23 -9.95,1.05 -20.04,2.17 -30.24,3.35 -119.89,13.98 -579.69,115.13 -780.7,159.97z"/>
  <path class="fil3" d="M902.11 1867.06c29.03,-13.96 -11.62,-14.47 18.63,3.34 9.17,5.4 8.86,8.42 24.98,20.75 -15.89,-67.35 -81.18,-166.49 -33.3,-242.38 127.26,-4.6 75.53,123.51 132.76,137.72 30.78,7.64 43.84,-8.64 55.91,-42.42 37.11,-103.87 -0.98,-218.99 -20.24,-295.05l51.63 116.44c10.65,37.02 25,89.45 25.95,141.76 1.5,83.03 -17.41,140.6 -79.79,193.39l-60.44 42.32c141.93,-8.66 181.77,-117.7 162.15,-265.11 -14.39,-108.07 -41.21,-255.43 -122.65,-304.22l-4.93 1.11c-43.55,4.62 -78.22,16.77 -105.74,34.25 -45.16,31.45 -77.4,82.33 -88.53,157.21 -7.83,52.72 -3.63,107.3 4.13,156.53 3.64,23.08 8.49,61.39 17.23,94.04l0.08 0.31 0.05 0.18c0.81,2.9 1.6,5.65 2.37,8.33 5.2,17.27 11.64,32.26 19.76,41.5z"/>
  <path class="fil4" d="M902.11 1867.06c-0.51,5.54 -1.52,8.82 -2.54,10.91 2.1,5.99 5.01,14.38 8.77,25.37l1.2 1.87c41.37,26.84 53.88,38.25 108.64,37.71l60.44 -42.32c62.38,-52.78 81.29,-110.36 79.79,-193.39 -0.95,-52.32 -15.29,-104.75 -25.95,-141.76l-51.63 -116.44c19.26,76.06 57.35,191.18 20.24,295.05 -12.07,33.78 -25.13,50.06 -55.91,42.42 -57.23,-14.21 -5.5,-142.32 -132.76,-137.72 -47.87,75.89 17.42,175.03 33.3,242.38 -16.12,-12.33 -15.81,-15.36 -24.98,-20.75 -30.25,-17.81 10.4,-17.3 -18.63,-3.34z"/>
  <path class="fil5" d="M1115.71 2128.67c0,0 187.15,73.37 371.31,-73.36 0,0 -128.23,147.01 -245.28,169.33l-44.37 -24.16c0,0 -4.02,-19.93 -28.24,-25.3 -24.22,-5.36 -81.19,6.64 -141.42,-54 0,0 49.07,20.96 68.54,14.22l17.22 0.75 2.25 -7.49z"/>
  <path class="fil6" d="M1221.75 2213.75c0,0 124.79,-37.54 198.77,-92.75 0,0 -77.48,74.59 -178.79,103.64l-14.48 -6.32 -5.5 -4.56z"/>
  <path class="fil7 str0" d="M1157.65 1931.59c0,0 262.92,120.13 245.54,547.97"/>
  <path class="fil7 str1" d="M1117.23 1995.97c0,0 188.65,142.24 161.7,405.74"/>
  <path class="fil7 str2" d="M1102.26 2013.94c0,0 176.82,155.01 70.37,401.25"/>
  <path class="fil7 str3" d="M1084.29 2034.9c0,0 76.36,98.81 11.98,279.97"/>
  <path class="fil8" d="M2329.7 1488.99c1.81,-16.55 -2.82,-26.23 -4.05,-39.43 -1.02,-10.92 -1.61,-17.47 -6.05,-27.01 -2.77,-5.95 -1.31,-3.65 -4.95,-7.38 -0.96,9.1 5.34,57.3 10.36,67.98 2.2,4.7 3.1,4.44 4.7,5.84z"/>
  <path class="fil9" d="M3462.21 3268.12c-0.1,-0.01 -38.42,-15.71 -28.82,38.82 2.39,13.57 15.07,43.62 19.02,62.04 9.28,43.29 14.49,85.95 20.64,131.61 13.87,102.83 19.45,177.4 5.81,287.81 -23.26,188.23 -120.2,365.33 -234.66,461.27 -139.61,117.01 -216.71,166.44 -416.78,217.39 -71.5,18.21 -170.19,34.16 -257.79,35.85 -131.78,2.54 -286.57,-25.63 -309.48,-24.07 33.47,-194.16 34.43,-192.36 7.79,-376.11 -11.3,-77.97 -52.39,-266.68 -49.13,-331.53l504.97 -180.03 -5.85 -459.49 231.62 -66.72c-0.01,-64.87 -7.45,-189.96 -28.25,-242.51l-8.45 208.72 -234.56 70.17c-1.76,110.08 22.12,380.84 2.95,465l-470.18 163.3c12.22,-70.83 590.64,-916.62 624.69,-996.23 20.2,-47.23 -43.64,-343.69 -44.87,-421.8 75.95,-39.83 344.93,-114.04 490.78,-195.81 57.96,-32.5 90.84,-58.73 138.5,-94.51l-110.57 39.21 -13.18 -47.99c81.64,-47.33 185.07,-62.62 207.81,54.7 12.17,62.78 21.09,207.62 8.6,271.73 -201.5,35.69 -588.03,148.46 -528.56,401.21 24.12,-91.78 56.44,-153.03 118.27,-195.67 34.54,-23.82 49.94,-38.58 88.36,-57.11 38.38,-18.51 64.56,-29.71 106.23,-43.88 292.46,-99.5 747.3,-93.93 940.53,146.93 68.6,85.51 170.2,244.96 171.96,409.97 -177.34,40.38 -324.55,73.91 -488.69,130.76 -91.79,31.79 -79.65,-114.72 -361.65,61.03l-97.08 75.91z"/>
  <path class="fil10" d="M2260.16 4478.84c22.91,-1.57 177.7,26.6 309.48,24.07 87.6,-1.69 186.29,-17.64 257.79,-35.85 200.06,-50.95 277.16,-100.38 416.78,-217.39 114.47,-95.94 211.4,-273.04 234.66,-461.27 13.64,-110.4 8.06,-184.98 -5.81,-287.81 -6.16,-45.65 -11.37,-88.32 -20.64,-131.61 -3.95,-18.42 -16.63,-48.47 -19.02,-62.04 -9.59,-54.53 28.72,-38.83 28.82,-38.82 67.04,-11.13 131.45,-69.14 211.91,-85.23 -12.2,232.9 -5.59,284.69 101.22,509.53 64.53,135.85 158.49,285.78 194.68,450.75 40.75,185.7 -23.45,394.5 -114.78,544.53 -82.31,135.21 -72.41,69.41 -88.46,256.77 -8.62,100.66 -10.48,225.56 -27.22,321.81l-1438.1 -27.94c5.78,-100.74 -4.85,-58.68 9.51,-208.76 7.86,-82.17 -114.27,-107.02 -50.82,-550.74z"/>
  <path class="fil9" d="M2224.35 4460.21c-117.77,-62.65 -120.29,-54.49 -235.08,-142.15 -82.84,-63.26 -146.3,-170.44 -181.07,-185.37 -15.1,-53.45 -57.38,-143.34 -82.15,-206.25 -30.28,-76.89 -45.78,-146.46 -70.92,-224.7 -32.87,-102.28 -69.76,-235.41 -86.5,-343.51 -6.22,-40.17 -7.16,-103.39 -20.46,-130.05 -17.18,115.19 3.34,188.99 11.73,293.38 -67.98,17.69 -196.65,133.34 -384.17,127.55 -68.94,-2.13 -103.12,-26.85 -161.48,-36.1 -21.25,-14.94 -233.55,-301.77 -255.12,-337.79 34.81,-25.03 86.82,-35.63 120.49,-57 181.77,-115.39 191.48,-185.64 269.87,-274.18 10.87,-12.28 8.97,-10.05 16.14,-16.05l264.61 294.11c-11.78,-48.72 -54.46,-118.43 -78.56,-149.75 27.1,-44.67 147.88,-143.05 198.52,-191.6 56.61,-54.27 152.51,-111.77 262.76,-120.4l173.6 475.42c25.41,64.47 176.12,442.05 174.49,476.19 -35.4,-22.32 -304.81,-247.1 -329.94,-278.66l46.46 -292.57c-3.88,-37.51 -168.69,-185.86 -172.4,-223.42 -1.37,-13.84 26.69,-93.51 32.32,-118.06 -29.94,31.65 -66.71,93.2 -80.01,142.09l163.5 180.82c32.06,49.3 -23.9,259.09 -35.02,334.74l319.32 261.24c55.29,47.06 69.19,39.33 80.39,112.44 43.16,281.75 83.64,374.53 38.69,629.62z"/>
  <path class="fil10" d="M2224.35 4460.21c-78.29,448.36 62.13,505.44 43.82,590.26 -8.28,38.35 -66.85,136.98 -86.17,172.46l-565.2 -154.24c1.33,-333.54 71.9,-536.06 219.47,-792.48 -40.97,-57.34 -67.32,-56.63 -28.08,-143.53 34.78,14.93 98.23,122.11 181.07,185.37 114.79,87.65 117.31,79.5 235.08,142.15z"/>
  <path class="fil11" d="M347.35 1384.59c242.37,88.26 392.6,559.67 276.52,818.76 -135.15,301.63 -485.02,73.34 -556.42,-347.07 -18.95,-111.56 -19.81,-242.92 28.85,-350.09 43.82,-96.51 128.65,-166.17 251.05,-121.6z"/>
  <path class="fil12" d="M3340 5991.41l-833.13 -1.67c-144.16,-0.3 -304.52,-32.29 -156.51,-170.71 17.43,-16.3 21.81,-24.23 40.89,-42.63 16.74,-16.15 31.7,-24.93 52.08,-40.44 124.77,-94.96 83.36,-81.36 277.14,-80.98 240.7,0.48 481.74,-0.26 722.4,1.64 100.33,131.53 156.12,335.32 -102.87,334.8z"/>
  <path class="fil13" d="M355.57 1441.19c145.33,72.61 229.52,276.85 250.68,431.73 23.63,173.03 -3.88,500.47 -241.33,399.84 -40.47,-17.15 -44.47,-30.64 -71.75,-53.57 -15.89,-13.35 -12.91,-6 -26.36,-21.7 -19.71,-23.01 -6.09,-22.88 -31.48,-50.37 -39.99,-43.29 -67.54,-110.38 -89.84,-169.97 -13.17,-35.19 -24.12,-86.15 -32.29,-132.6 -28.65,-162.8 7.81,-520.56 242.38,-403.35z"/>
  <path class="fil14" d="M459.79 2257.44c-291.5,-196.86 -296.73,-854.33 -136.24,-795.03 70.14,25.92 127.02,106.97 149.4,149.62 17.22,32.82 33.51,50.43 49.34,93.41 53.18,144.37 95.6,327.09 19.52,478.36 -26.53,52.75 -40.5,53.43 -82.03,73.64z"/>
  <path class="fil15" d="M4861.49 3577.42c7.13,69.72 -4.73,97.75 -66.9,113.96 -50.79,13.25 -111.08,9.98 -166.94,-3.13 -129.32,-30.35 -158.65,-129.72 -270.63,-127.27 -154.25,3.37 -143.78,76.09 -225.98,137.18 -69.06,51.33 -252.03,76.5 -216.11,-74.61 102.5,-19.1 81.37,-72.34 101.84,-179.54 86.15,-12.51 405.11,-116.09 450.8,-112.19 34.91,2.98 112.52,127.5 142.77,156.01 79.42,74.87 166.84,34.1 251.15,89.59z"/>
  <path class="fil12" d="M2451.94 5661.24c-78.16,69.2 -39.62,25.51 -137.41,121.72 -55,54.11 -75.98,73.76 -71.27,169.77 -66.11,3.7 -332.63,4.51 -401.96,-7.27 -15.59,-2.65 -38.7,-7.66 -51.62,-12.18 -140.78,-49.2 38.07,-189.87 97.58,-236.08 132.35,-102.77 108.1,-73.08 296.36,-75.15 82.87,-0.91 170.72,-4.57 253.03,-1.39 5.17,21 9.74,29.62 15.28,40.58z"/>
  <path class="fil16" d="M4510.35 3257.63c-21.46,15.92 -507.03,143.36 -551.5,145.49 -25.98,-42.34 -75.3,-147.15 -73.94,-203.62 86.13,-30.61 465.61,-159.33 565.43,-146.98 35.13,44.63 51.94,143.54 60.01,205.11z"/>
  <path class="fil16" d="M1014.25 3613.01c58.36,9.26 92.54,33.97 161.48,36.1 187.53,5.79 316.2,-109.86 384.17,-127.55l67.35 279.69c-96.11,22.66 -251.87,92.33 -374.01,60.68 -62.58,-16.22 -228.66,-223.83 -238.99,-248.93z"/>
  <path class="fil16" d="M1146.02 2847.32c-101.58,186.93 -304.97,429.03 -556.3,373.98l-4.73 -138.79 60.97 6.4c12.21,22.63 18.33,121.68 109.21,105.48 72.36,-12.91 54,-85.87 47.06,-146.73 68.66,-64.01 102.53,-39.7 96.55,-182.26l149.46 -153.26 97.78 135.19z"/>
  <path class="fil17" d="M2192.12 3644.88c-36.51,-51.83 -74.76,-180.67 -98.17,-244.85 -25.83,-70.81 -33.62,-61.89 -3.78,-142.9 15.9,-43.15 37.51,-105.34 57.04,-142.71 99.42,29.07 44.27,22.8 140.17,11.8 18.4,245.37 60.69,284.22 -21.38,410.76 -23.23,35.83 -44.83,76.97 -73.89,107.9z"/>
  <path class="fil17" d="M2418.01 2921c-18.3,45.98 -109.64,142 -151.71,166.28 -80.99,46.75 -151.5,-64.57 -181.12,-121.38 -29.54,-56.64 71.89,-162.28 127.43,-160.7 113.71,3.23 119.97,-1.19 205.4,115.8z"/>
  <path class="fil15" d="M501.43 2482.69l19.79 35.33c51.7,-18.71 174.92,-65.78 234.38,-23.87 44.73,31.53 57.11,118.24 -85.23,168.56 -62.74,22.18 -184.82,57.27 -235.95,-10.96 -38.3,-51.11 -53.06,-137.2 67,-169.06z"/>
  <path class="fil18" d="M592.99 2302.99c55.75,-100.99 87.03,-125.72 95.89,-273.05 6.16,-102.28 -11.16,-193.7 -36.46,-282.28 -34.93,-122.31 -100.85,-244.75 -191.23,-322.55 -36.97,-31.82 -78.9,-47.1 -112.75,-72.54 183.38,-53.17 442.57,338.07 397.94,694.92 -14.79,118.28 -73.86,236.31 -153.39,255.5z"/>
  <path class="fil15" d="M432.75 2724.87c66.5,-0.34 104.62,39.88 262.22,-18.89 35.14,-13.1 85.48,-52.09 108.46,-49.69 46.29,4.82 62.28,66.52 40.69,107.19 -48.84,92 -446.92,185.74 -411.37,-38.61z"/>
  <path class="fil19" d="M2553.34 3081.32c-30.76,49.83 -63.25,101.73 -96.37,152.58l-109.42 158.41c-2.09,-83.66 -17.18,-170.2 -21.61,-255.13 -2.98,-57.23 21.5,-67.13 51.94,-97.75 24.39,-24.54 52.17,-69.83 75.05,-82.85 20.31,21.19 91.76,103.95 100.4,124.73z"/>
  <path class="fil19" d="M2581.47 3039.3c-26.7,-15.65 -178.52,-193.93 -199.09,-226.48 60.16,-14.38 220.26,-0.47 365.19,-44.16l-166.1 270.64z"/>
  <path class="fil15" d="M514.29 2911.56c196.21,4 197.6,-37.84 317.17,-65.27 81.32,94.67 -33.85,156.23 -111.81,178.69 -120.42,34.69 -198.67,7.6 -205.36,-113.41z"/>
  <path class="fil15" d="M874.5 2812.6c53.33,-87.98 45.08,-168.43 -51.43,-200.54 31.76,-140.85 -44.2,-189.46 -182.98,-181.28l-22.97 -74.39 57.9 -36.56c32.72,90.87 27.88,62.83 127.54,88.6 118.21,30.56 136,175.41 146.96,267.89 10.18,85.86 -24.32,92.55 -75.01,136.26z"/>
  <path class="fil19" d="M1949.91 3003.08c-19.17,-30.4 -87.42,-203.31 -84,-234.13l257.55 32.19 -173.55 201.94z"/>
  <path class="fil20" d="M4020.51 4417.05l17.45 -141.19c225.37,13.62 206.08,-20.01 260.04,-17.6 -3.86,112.69 -159.72,163.31 -277.49,158.79z"/>
  <path class="fil19" d="M2043.29 3258.15c-22.17,-51.81 -37.75,-102.26 -58.72,-151.7 -20.27,-47.79 -27.33,-68.03 54.69,-138.26 1.48,1.62 3.88,2.19 4.14,5.13 1.49,16.99 74.62,79.71 66.34,123.41l-54.82 144.59c-9.12,16.58 -6.21,11.09 -11.63,16.84z"/>
  <path class="fil12" d="M4745.14 3754.67c-7.71,126.16 -189.17,110.45 -214.98,-44.51 96.71,31.44 117.64,28.93 214.98,44.51z"/>
  <path class="fil21" d="M1882.7 1675.99c9.97,22.27 24.76,44.5 43.56,62.35 29.02,27.56 68.87,46.66 108.32,47.88 67.08,2.07 125.89,-38.46 168.12,-112.19 19.74,-34.46 39.09,-81.52 42.62,-118.15 7.88,-81.76 -41.99,-137.15 -116.09,-166.6 -26.33,-10.46 -56.46,-16.36 -83.88,-15.51 -56.1,4.63 -100.45,27.3 -134.81,74.76 -43.45,60.04 -58.51,159.04 -27.86,227.45z"/>
  <path class="fil22" d="M2123.8 1411.56c-50.94,-19.82 -96.98,-23.24 -143.92,-1.49 -2.67,1.24 -4.29,2.2 -7.03,3.75 -72.45,41.03 -105.51,142.18 -85.26,221.7l7.29 22.96c25.69,64 89.16,112.83 160.86,107.92 17.15,-1.17 41.85,-7.56 57.19,-15.66 1.36,-0.72 2.43,-1.29 3.9,-2.02 66.87,-32.93 130.68,-129.01 119.7,-210.13 -4.87,-36.03 -17.42,-60.26 -44.57,-85.29 -18.43,-16.99 -42.62,-31.8 -68.17,-41.74z"/>
  <path class="fil21" d="M2027.71 1524.58c-48.23,-15.66 -104.79,11.18 -123.81,66.57 -9.76,28.43 -7.04,56.34 5.65,81.52 1.3,2.57 2.8,5.22 4.47,7.68 11.6,17.13 27.2,30.23 48.2,37.08 13.07,4.26 27.12,5.35 38.3,3.99 13.94,-1.7 22.52,-4.79 33.62,-10.06 40.79,-19.37 65.98,-70.66 55.55,-116.97 -1.46,-6.51 -3.11,-11.04 -5.33,-16.71 -8.06,-20.63 -26.54,-43.32 -56.65,-53.1z"/>
  <path class="fil23" d="M2185.6 1621.14c-11.98,25.89 -14.59,30.8 -32.9,56.95l-14.11 17.53c-2.55,3.06 -4.79,4.13 -7.38,7.17 -4.84,5.7 -10.26,10.12 -15.52,15.1 -6.82,6.46 -24.56,20.08 -32.55,24.28 -2.99,1.57 -5.65,2.89 -8.55,4.64 -5.13,3.1 -13.69,6.33 -16.77,12.68 4.38,1.72 8.81,-0.02 12.24,-0.99 3.42,-0.97 7.32,-1.87 10.98,-3.17l41.48 -19.16c3.65,-2.15 6.02,-4.07 9.87,-5.97 2.35,-1.16 2.48,-2.09 4.83,-3.77l9.63 -6.5c0.63,-0.36 1.65,-0.88 2.31,-1.32l11.78 -9.97c22.67,-19.25 40,-41.81 52.63,-69.09 6.12,-13.22 14.22,-36.9 15.42,-50.58 0.63,-7.16 2.3,-16.65 2.21,-23.62 -0.02,-1.64 -0.08,-2.97 -0.02,-4.63 0.09,-2.5 -0.07,-6.59 -0.25,-8.84 -0.15,-1.92 -0.46,-2.1 -0.48,-3.96 -0.02,-2.51 0.49,-3.37 -0.34,-6.09 -1.59,-5.23 -1.72,-9.83 -2.92,-14.27 -0.18,-0.68 -0.23,-0.72 -0.39,-1.25 -4.13,-14.24 -6.04,-18.98 -14.52,-31.13 -1.52,-2.17 -10.91,-16.58 -12.62,-5.63 -0.85,5.44 0.46,12.51 1.55,17.71 0.65,3.07 1.04,4.99 1.62,8.24l1.97 12.73c0.22,2.21 -0.23,2.88 -0.19,4.82 0.04,1.54 0.6,2.85 0.53,4.31 -0.04,0.89 -0.21,1.47 -0.31,2.46l-3.54 30.79c-1.09,7.07 -6.71,27.72 -9.53,35.01 -0.38,0.98 -0.76,1.87 -0.99,2.87l-5.2 12.67z"/>
  <path class="fil22" d="M1983.21 1538.98c-21.98,-4.68 -50.83,22.51 -29.63,26.85 21.47,4.39 49.21,-22.68 29.63,-26.85z"/>
  <path class="fil22" d="M2004.13 1537.64c-8.56,-2.06 -10.71,7.45 -3.1,9.12 6.79,1.49 10.35,-7.38 3.1,-9.12z"/>
  <path class="fil24" d="M2810.47 260.85c-105.95,-39.35 -227.41,-47.25 -316.2,-43.38 -15.68,0.69 -23.34,-1.48 -38.79,1.13 -16.9,2.85 -23.26,3.46 -38.3,5.34 -87.67,10.98 -132.33,18.39 -229.79,56.49 -193.44,75.64 -444.87,263.34 -560.91,479.99l-132.61 17.82c-19.57,3.16 -43.05,9.16 -64.13,15.05 -22.44,6.27 -43.58,12.64 -66.54,20.18 -61.57,20.21 -212.91,70.43 -239.87,160.43 -24.22,80.87 94.75,196.4 152.26,252.3 84.82,82.47 185.5,166.21 267.96,193.31 399.73,131.39 685.63,-106.47 699.21,-110.95 83.73,48.35 591.5,363.76 678.04,405.77 25.71,12.48 74.29,29.9 93.98,44.14 -1.26,31.71 18.73,92.4 33.66,127.47 18.74,44.04 41.04,85.04 71.68,126.43 32.54,43.96 78.45,86.02 130.85,99.28 40.63,10.29 98.34,4.18 128.83,-45.57 49.09,-80.11 -50.64,-174.74 -74.43,-257.69 -6.93,-24.16 -9.11,-41.38 -12.7,-64.43 -4.37,-28.01 10.68,-37.95 22.35,-71.19 63.98,-182.28 127.52,-390.94 117.48,-582.21 -11.7,-223.01 -109.27,-452.72 -271.82,-609.33l79.13 1.02c28.16,-4.88 46.68,-8.04 75.41,-23 69.64,-36.27 60.66,-98.27 2.34,-140.14 -76.48,-54.91 -162.06,-58.65 -238.24,-35.12 -29.11,8.99 -43.96,21.57 -72.1,35.82 15.63,-33.95 26.97,-53.1 34.78,-87.55 50.38,-222.07 -209.66,-316.68 -258.62,-140.94 -21.68,77.81 19.2,136.03 27.1,169.49zm124.86 53.17c74.94,-131.27 -6.81,-206.19 -39.68,-194.48 -46.8,16.66 -32.15,117.6 -10.9,157.72 12.4,23.41 28.69,24.68 50.58,36.76zm111.26 67.36c6.96,6.6 19.07,16.51 27,22.18 16.39,11.73 8.37,8.57 26.25,6.96l113.06 -5.6c106.13,-1.12 25.49,-79.91 -115.54,-43.13 -16.94,4.42 -41.31,17.09 -50.77,19.59z"/>
  <path class="fil9" d="M2217.31 1290.57c-129.5,-86.42 128.98,90.81 0,0 -244.98,-172.48 -364.9,-266.58 -569.78,-475.79 -22.53,-23 -23.12,-21.34 -87.97,-11.66 -29.68,4.43 -59.05,10.87 -90.7,17.94 -53.1,11.86 -342.74,88.89 -310.66,199.69 25.31,87.43 232.46,264.94 320.5,324.18 157.65,83.39 454.99,95.71 738.61,-54.35z"/>
  <path class="fil9" d="M2446.84 409.2c-90.52,18.7 -462.22,291.23 -497.77,361.69 136,126.8 288.84,233.47 438.86,341.65 95.59,-100.09 307.43,-348.68 356.19,-469.4 -21.84,-24.25 -114.6,-85.36 -147.9,-111.14 -51.39,-39.78 -99.02,-82.7 -149.37,-122.81z"/>
  <path class="fil9" d="M2762.55 654.65c-86.93,136.34 -148.45,233.21 -257.21,358.46 -22.32,25.7 -84.32,88.3 -98.19,111.72 79.05,60.86 210.99,134.93 299.81,183.21 31.54,-28.51 129.19,-220.81 150.77,-267.83 39.78,-86.7 75.46,-177 98,-264.89l-193.19 -120.66z"/>
  <path class="fil9" d="M2975.4 786.61c-15.76,35.66 -27.36,87.59 -43.45,128.35 -17.75,44.96 -34.58,87.16 -55.11,132.06 -39.43,86.23 -93.97,187.59 -148.5,269.09 22.65,27.03 265.16,136.16 311.05,157.71 70.69,-126.92 93.04,-263.68 104.43,-382.76 2.98,-31.15 4.17,-63.08 5.41,-93.24 1.44,-35.1 -0.21,-59.75 -0.07,-92.88 0.15,-36.34 -4.35,-27.17 -71.59,-62.96 -32.96,-17.55 -67.97,-38.18 -102.17,-55.36z"/>
  <path class="fil9" d="M3170.81 891.03l-3.19 143.39c-1.54,45.38 -6.4,97.72 -13.88,145.26 -7.63,48.48 -15.86,97.41 -32.14,147.25l-60.66 154.49c26.23,18 228.27,99.35 247.74,98.41 43.19,-101.61 81.26,-295.99 85.84,-403.86 1.01,-23.9 3.72,-177.29 -16.83,-193.86 -0.75,-0.6 -199.29,-89.25 -206.88,-91.08z"/>
  <path class="fil9 str4" d="M1781.11 613.77l150.92 143.1c138.88,-160.09 323.41,-267.3 494.72,-364.22l-119.07 -112.33c-82.03,15.03 -184.23,63.01 -268.62,115.08 -63.92,39.44 -212.75,151.79 -257.94,218.36z"/>
  <path class="fil9" d="M1931.53 785.36c-32.24,34.79 -98.2,103.52 -119.81,141.71 140.75,123.75 268.45,222.32 419.57,331.25l143.08 -129.97c-118.73,-81.47 -228.35,-164.58 -338.17,-255.61 -24.73,-20.5 -81.24,-74.53 -104.67,-87.39z"/>
  <path class="fil9" d="M2390.83 1139.84l-140.48 129.83c40.21,37.82 274.48,175.76 339.85,218.02 22.45,-31.38 95.41,-131.41 104.54,-159.13 -7.66,-14.52 -121.95,-74.31 -148.87,-90.48 -49.73,-29.86 -106.34,-72.79 -155.04,-98.25z"/>
  <path class="fil9" d="M2714.8 1339.41l-106.27 158.29c41.55,31.57 276.59,166.67 316.93,175.14l106.19 -179.03c-51.8,-26.24 -104.87,-49.04 -156.63,-74.62l-160.22 -79.77z"/>
  <path class="fil9" d="M2467.42 399.77c95.43,79.1 184.09,151.8 286.24,222.3 40.9,-51.42 68.93,-183.19 68.71,-256.92 -0.07,-21.55 11.71,-70.04 -32.07,-71.71 -43.04,-1.65 -300.91,82.59 -322.88,106.33z"/>
  <path class="fil9" d="M2840.54 312.5c2.22,51.76 5.47,92.09 -8.44,156.29 -9.97,46.05 -33.74,122.49 -60.47,165.41l187.6 120.46c24.91,-46.81 35.06,-214.75 31.87,-250.42 -2.18,-24.44 -4.04,-39.52 -6.64,-62.02 -1.52,-13.11 -8.56,-52.14 -13.93,-61.56 -10.9,-19.11 -109.45,-65.99 -130,-68.16z"/>
  <path class="fil9" d="M3052.43 1767.36c-0.02,6.26 -0.03,3.32 0.89,9.97l7.82 35.26c15.53,51.37 27.75,84.2 58.3,134.06 107.93,176.14 222.5,148.67 236.66,83.29 6.75,-31.15 -5.17,-56.84 -24.71,-89.84 -29.58,-49.95 -47.9,-74.06 -63.23,-130.46 -4.66,-17.14 -5.63,-34.85 -12.14,-46.61 -47.29,19.6 -51.24,25.38 -99.08,24.29 -28.12,-0.64 -76.59,-7.91 -104.5,-19.97z"/>
  <path class="fil9" d="M3049.67 1502.13l-105.49 181.79c67.51,38.89 149.64,65.81 211.48,67.2 125.58,2.8 118.23,-95.42 147.46,-146.67l-253.45 -102.31z"/>
  <path class="fil9" d="M3165.75 861.14c21.04,17.16 184.82,90.41 210.3,96.13 0.3,-1.07 1.23,-3.64 0.56,-3.28l-4.52 -26.86c-48.05,-174.29 -126.37,-321.28 -267.33,-449.38 0.09,1.15 0.94,1.99 0.31,3.44l4.59 21.52c21.44,72.89 32.78,140.1 43.18,213.25 3.86,27.15 17.16,125.08 12.91,145.19z"/>
  <path class="fil9" d="M2996.81 398.91c7.56,34.07 8.7,52.75 13.49,88.13 11.82,87.41 -16.52,199.15 -29.32,276.82 40.13,32.8 119.41,63.49 163.89,90.76 8.54,-44.31 -45.82,-378.5 -80.26,-412.52 -9.91,-9.79 -52.23,-45.03 -67.8,-43.2z"/>
  <path class="fil9" d="M1658.97 774.91l135.95 137.57 122.52 -143.73 -151.57 -140.75c-37.36,48.15 -74.99,94.24 -106.9,146.91z"/>
  <path class="fil9" d="M2861.44 280.56c-2.93,-28.58 -20.84,-49.69 -16.21,-109.43 8.88,-114.58 137.54,-83.65 141.54,37.49 1.7,51.42 -15.48,72.04 -26.23,101.51l8.57 22.34c55.47,-26.41 110.42,-270.37 -48.56,-309.55 -62.87,-15.49 -114.53,28.47 -121.93,102.57 -4.45,44.56 17.46,131.5 62.82,155.06z"/>
  <path class="fil9" d="M2335.74 270.53l8.14 16.23c1.78,2.26 11.05,10.7 13.15,12.61l90.36 82.08c18.03,-2.37 53.18,-21.19 74.33,-30.18 23.31,-9.92 50.6,-20.8 74.51,-28.05 29.51,-8.96 133.93,-43.29 147.42,-42.16 -50.59,-28.66 -239.33,-33.53 -304.59,-23.87l-103.31 13.35z"/>
  <path class="fil9" d="M3001.74 351.81l25.6 18c77.76,-55.86 264.47,-47.68 254.8,17.36 -8.44,56.7 -134.21,33.27 -172.78,45.59 41.82,37.92 103.8,34.52 154.37,24.49 56.12,-11.14 119.37,-61.15 48.31,-117.33 -93.34,-73.8 -231.86,-58.75 -310.29,11.9z"/>
  <path class="fil8" d="M2413.16 1156.14c-9.54,3.17 -42.67,30.29 -51,38.59 -0.28,0.28 -0.83,0.85 -1.08,1.1l-2.05 2.18c-2.46,11.02 -1.05,4.29 -6.07,11.89 -1.77,2.67 -4.8,7.49 -6.02,8.49 -1.71,5.71 -3.77,15.47 -6.59,19.75 -3.63,5.53 -0.56,-1.29 -5.49,6.24 -9.74,14.87 -10.79,29.9 -13.67,34.48 -5.31,8.42 5.83,-5.45 -2.11,2.38 -0.31,0.31 -0.89,0.75 -1.23,1.04 -9.18,7.61 -10.55,1.56 -15.79,13.35 -2.7,6.07 -3.12,14.23 -2.48,22.23 1.09,13.54 3.6,16.54 11.16,25.32l6.95 8.13c-0,-28.8 -5.23,-6.22 -10.93,-24.99 -3.07,-10.1 -1.95,-22.21 3.39,-27.36 10.35,4.56 2.73,10.5 16.08,38.62 6.38,13.45 12.85,23.94 28.1,26.63 0.21,-25.66 -29.17,-65.84 -10.13,-100.79 6.4,-11.75 14.2,-24.57 23.96,-36.12 7.64,-9.05 6.04,-8 15.36,-15.8 6.37,-5.34 5.84,-7.35 14.9,-13.9 24.19,-17.51 1.45,-6.45 36.94,-23.35 16.15,-7.69 6.78,-7.82 16.64,-13.82 1.9,-1.16 18.49,-6.82 21.38,-7.94 40.16,-15.63 75.74,1.02 75.39,34.98 -17.49,-0.71 -6.58,0.29 -16.62,-7.92 -4.02,-3.29 -6.54,-4.58 -13.53,-5.14 -24.41,-1.97 -25.14,1.49 -35.1,5.25 -27.8,10.52 -17.5,-2.3 -51.76,29.78l-40.56 40.82c-3.98,5.63 -0.37,-0.6 -4.25,7.36 -9.19,18.84 -13.19,31.31 -12.93,52.97 10.16,4.38 3.81,5.01 15.14,16.77l2.41 2.41c16.84,17.23 28.77,14.67 61.91,17.11l7.55 9.2c-40.6,18.83 -49.36,8.91 -64.62,9.89 -0.77,12.68 4.68,50.43 7.73,61.36 24.41,1.62 50.54,-2.54 70.08,-12.73 8.61,-4.49 16.25,-7.56 24.62,-5.31 -2.79,9.98 0.89,3.84 -10.26,13.01l-10.03 6.84c-2.26,1.11 -4.49,1.86 -6.54,2.98 -7.06,3.87 -3.99,4.69 -16.08,8.31 -17.46,5.22 -78.2,21.57 -92.07,22.04 -9.19,-15.48 -9.98,-5.64 -18.6,-16.79 -7.17,-9.26 -2.57,-16.86 -14.27,-21.43 -2.52,12.44 14.45,36.33 28.01,41.68 15.64,6.18 104,-15.07 121.28,-28.3l4.04 -3.28c14.37,-9.38 3.39,0.78 21.78,-16.42 9.14,-8.56 -2.35,-5.19 12.45,-8.52 18.99,-4.33 46.33,-113.83 50.13,-132.53l8.65 -52.53c-0.11,-22.93 -1.73,-44.58 -9.88,-61.3 -26.67,-54.76 -77.51,-33.97 -115.54,-22.53 -23.47,7.06 -27.12,12.83 -38.77,15.6z"/>
  <path class="fil25" d="M2317.7 1351.32l-1.75 -0.88c3.64,3.73 2.18,1.44 4.95,7.38 4.44,9.53 5.02,16.09 6.05,27.01 1.24,13.2 5.86,22.88 4.05,39.43 11.69,4.58 7.1,12.17 14.27,21.43 8.62,11.15 9.41,1.31 18.6,16.79 13.88,-0.48 74.61,-16.82 92.07,-22.04 12.1,-3.62 9.03,-4.44 16.08,-8.31 2.05,-1.12 4.28,-1.87 6.54,-2.98l10.03 -6.84c11.15,-9.18 7.47,-3.03 10.26,-13.01 -8.37,-2.25 -16,0.82 -24.62,5.31 -19.54,10.2 -45.68,14.35 -70.08,12.73 -3.06,-10.92 -8.5,-48.67 -7.73,-61.36 15.26,-0.98 24.02,8.94 64.62,-9.89l-7.55 -9.2c-33.14,-2.43 -45.07,0.12 -61.91,-17.11l-2.41 -2.41c-11.33,-11.75 -4.98,-12.38 -15.14,-16.77 -0.26,-21.66 3.74,-34.13 12.93,-52.97 3.88,-7.97 0.27,-1.73 4.25,-7.36l40.56 -40.82c34.26,-32.09 23.96,-19.27 51.76,-29.78 9.95,-3.77 10.69,-7.22 35.1,-5.25 6.99,0.57 9.51,1.86 13.53,5.14 10.03,8.21 -0.87,7.21 16.62,7.92 0.35,-33.96 -35.24,-50.61 -75.39,-34.98 -2.88,1.12 -19.47,6.78 -21.38,7.94 -9.87,5.99 -0.49,6.13 -16.64,13.82 -35.49,16.9 -12.75,5.84 -36.94,23.35 -9.05,6.55 -8.53,8.56 -14.9,13.9 -9.31,7.8 -7.71,6.76 -15.36,15.8 -9.76,11.55 -17.56,24.38 -23.96,36.12 -19.05,34.96 10.33,75.13 10.13,100.79 -15.26,-2.69 -21.72,-13.18 -28.1,-26.63 -13.35,-28.12 -5.73,-34.06 -16.08,-38.62 -5.34,5.15 -6.46,17.26 -3.39,27.36 5.7,18.77 10.93,-3.82 10.93,24.99z"/>
  <path class="fil26" d="M2318.18 1236.34c-15.73,8.58 -72.91,77.1 -80.59,95.82l-0.05 9.97c13.22,-6.7 27.42,-41.55 47.56,-20.79 4.24,4.37 19.63,49.05 22.94,58.39 5.36,15.13 0.49,53.43 5.92,74.6 7.45,4.04 17.21,-7.52 19.6,14.75 1.37,12.78 0.61,26.83 1.52,40.18 1.43,21 -0.71,57.49 6.99,73.66 7.89,-23.93 8.67,-56.82 13.49,-76.22 4.05,-16.28 0,-19.41 5.85,-25.14 9.69,-9.48 22.72,9.76 78.56,1.58 46.12,-6.76 40.97,-8.44 78.6,-19.33 8.51,-1.8 30.68,-15.54 33.54,-26.24 -13.31,6.39 -42.03,11.98 -62.28,11.98 7.15,-10.69 25.42,-23.06 28.75,-40.12 -14.8,3.33 -3.31,-0.04 -12.45,8.52 -18.39,17.21 -7.42,7.05 -21.78,16.42l-4.04 3.28c-17.28,13.23 -105.64,34.48 -121.28,28.3 -13.56,-5.36 -30.53,-29.24 -28.01,-41.68 -1.6,-1.4 -2.5,-1.14 -4.7,-5.84 -5.01,-10.68 -11.31,-58.88 -10.36,-67.98l1.75 0.88 -6.95 -8.13c-7.55,-8.79 -10.07,-11.79 -11.16,-25.32 -0.64,-8 -0.22,-16.16 2.48,-22.23 5.24,-11.79 6.61,-5.74 15.79,-13.35 0.34,-0.28 0.92,-0.72 1.23,-1.04 7.94,-7.83 -3.2,6.05 2.11,-2.38 2.89,-4.58 3.93,-19.6 13.67,-34.48 4.93,-7.53 1.86,-0.71 5.49,-6.24 2.82,-4.29 4.88,-14.05 6.59,-19.75 -8.24,4.26 -8.48,9.68 -17.9,25.39l-13.75 25.31c-9.19,-13.56 1.48,-14.8 2.89,-32.76z"/>
  <path class="fil27" d="M2237.59 1332.16c-5.42,8.23 -7.89,12.48 -12.89,22.35 -6.19,12.2 -8.64,11.81 -5.57,25.93l7.09 -0.24c3.64,-12.88 20.11,-39.64 29.42,-47.22 6.47,-5.28 8.97,-9.09 13.8,-12.27 33.05,12.13 32.81,98.21 32.61,126.45 -0.07,9.32 -0.83,17.25 -1.28,26.35 -0.47,9.57 -1.06,20.21 4.61,27.48 6.16,-2.79 3.8,-0.2 6.73,-6.97 4.8,-11.1 -5.08,-5.29 13.77,-24.55 0.3,-0.31 0.88,-0.93 1.34,-1.37 0.75,28.5 -0.04,114.1 14.1,127.61 10.47,-6.87 13.54,-36.05 14.81,-50.22 0.87,-9.81 4.76,-16.31 6.07,-24.61 1.57,-9.95 0.77,-21.6 1.79,-32.15 10.56,-2.77 24.71,5.55 63.61,3.78 45.94,-2.08 34.14,-7.75 59.85,-11.44 0.43,-0.41 1.14,-1.58 1.37,-1.13 0.23,0.44 1.08,-0.89 1.41,-1.09 11.1,-6.9 23.01,-7.48 28.37,-15.01 -37.63,10.89 -32.48,12.58 -78.6,19.33 -55.84,8.18 -68.87,-11.06 -78.56,-1.58 -5.85,5.73 -1.81,8.86 -5.85,25.14 -4.82,19.4 -5.6,52.3 -13.49,76.22 -7.7,-16.18 -5.56,-52.66 -6.99,-73.66 -0.91,-13.35 -0.15,-27.4 -1.52,-40.18 -2.39,-22.26 -12.14,-10.7 -19.6,-14.75 -5.43,-21.16 -0.56,-59.46 -5.92,-74.6 -3.31,-9.34 -18.7,-54.03 -22.94,-58.39 -20.13,-20.76 -34.34,14.09 -47.56,20.79l0.05 -9.97z"/>
  <path class="fil26" d="M2413.16 1156.14c11.65,-2.77 15.3,-8.54 38.77,-15.6 38.03,-11.44 88.86,-32.24 115.54,22.53 8.15,16.72 9.77,38.37 9.88,61.3l4.71 -15.62c5.54,-37.34 -10.99,-71.87 -48.98,-82.73 -3.74,-1.07 -7.93,-1.81 -12.45,-2.26l-22.87 0c-29.33,2.37 -62.97,12.86 -79.3,26.91l-5.29 5.48z"/>
  <path class="fil27" d="M2318.18 1236.34c-1.42,17.96 -12.08,19.2 -2.89,32.76l13.75 -25.31c9.43,-15.71 9.66,-21.14 17.9,-25.39 1.22,-1 4.25,-5.82 6.02,-8.49 5.03,-7.6 3.61,-0.87 6.07,-11.89 -6.18,3.28 -37.08,29.79 -40.85,38.33z"/>
  <path class="fil8" d="M2331 1424.26c1.81,-16.55 -2.81,-26.23 -4.05,-39.43 -1.02,-10.92 -1.61,-17.47 -6.05,-27.01 -2.77,-5.95 -1.31,-3.65 -4.95,-7.38 -0.96,9.1 5.34,57.3 10.36,67.98 2.2,4.7 3.1,4.44 4.7,5.84z"/>
 </g>
</svg>
